<?xml version="1.0" standalone="no"?><!DOCTYPE svg PUBLIC "-//W3C//DTD SVG 1.1//EN" "http://www.w3.org/Graphics/SVG/1.1/DTD/svg11.dtd"><svg t="1689755648318" class="icon" viewBox="0 0 1024 1024" version="1.1" xmlns="http://www.w3.org/2000/svg" p-id="2355" xmlns:xlink="http://www.w3.org/1999/xlink" width="200" height="200"><path d="M876.002334 513.220847c0 26.364952-2.78654 52.086857-8.1024 76.865625-15.261663 71.421155-51.379505 135.104304-101.687263 184.383187a365.705467 365.705467 0 0 1-82.095746 60.596521 363.261886 363.261886 0 0 1-99.350857 36.33219 368.09546 368.09546 0 0 1-74.529219 7.587962c-6.130387 0-12.217905-0.150044-18.262552-0.450133-68.956139-3.386717-132.875073-25.871949-186.590984-62.28988a365.722615 365.722615 0 0 1-47.264-38.046984 366.747204 366.747204 0 0 1-43.877282-50.071974c-43.705803-60.103517-69.577752-134.053993-69.770666-214.006247 0-1.693359 0.021435-3.365283 0.021435-5.058641 0.021435-1.39327 0.064305-2.78654 0.085739-4.158375 0.021435-1.22179 0.04287-2.443581 0.08574-3.665371 2.636495-82.052876 32.32386-157.289447 80.402387-217.071441 9.259886-11.510552 19.184254-22.442362 29.75167-32.731124 46.556647-45.442032 105.20259-78.580419 170.664837-94.099301 18.391162-4.372724 37.318197-7.330743 56.652495-8.809752 9.281321-0.707352 18.648381-1.071746 28.101181-1.071746 63.147276 0 122.543441 15.990451 174.373079 44.198806a363.279034 363.279034 0 0 1 45.056203 28.894273c13.804089 10.353067 26.836521 21.670705 39.011555 33.845739 5.958908 5.958908 11.724902 12.11073 17.233677 18.476902 26.407822 30.223238 47.928482 64.8192 63.275885 102.58753 17.297981 42.526882 26.815086 89.04066 26.815086 137.762234z" fill="#F9911E" p-id="2356"></path><path d="M855.360505 391.770587c-59.010336 78.687593-132.403504 163.26979-216.385523 247.230374-84.732241 84.753676-170.10753 158.725587-249.416736 218.014577-0.471568 0.364394-0.964571 0.707352-1.436139 1.071746a362.77317 362.77317 0 0 1-70.735238-34.038654c0.471568-0.235784 0.921702-0.493003 1.39327-0.750222h0.021435c0.08574-0.04287 0.192914-0.12861 0.278654-0.171479 80.059428-43.812978 181.403733-122.371962 281.526246-222.494476 99.136508-99.136508 177.116749-199.451936 221.186946-279.125535a361.129111 361.129111 0 0 1 33.567085 70.263669z" fill="#F9A24B" p-id="2357"></path><path d="M681.686205 243.906075a10.659586 10.659586 0 0 1-5.678111-1.637628 312.546864 312.546864 0 0 0-39.592441-21.004079 10.71746 10.71746 0 0 1 8.653277-19.608665 333.750287 333.750287 0 0 1 42.31682 22.448792 10.71746 10.71746 0 0 1-5.699545 19.80158zM731.198728 753.506307a10.71746 10.71746 0 0 1-7.324313-18.54335c62.965079-58.909592 99.078633-141.984914 99.078634-227.926084 0-86.434174-34.660267-166.883718-97.597481-226.532815a10.71746 10.71746 0 0 1 14.745082-15.559609c67.252063 63.736736 104.287319 149.712203 104.287319 242.09028 0 91.850778-38.587144 180.632076-105.869216 243.577864a10.67459 10.67459 0 0 1-7.320025 2.893714zM686.118946 788.792473a10.71746 10.71746 0 0 1-5.845302-19.707266 314.593899 314.593899 0 0 0 16.127634-11.204033 10.71746 10.71746 0 1 1 12.773069 17.214385 336.039537 336.039537 0 0 1-17.229389 11.967116 10.67459 10.67459 0 0 1-5.826012 1.729798z" fill="#FFFFFF" p-id="2358"></path><path d="M768.677686 254.394181a364.299336 364.299336 0 0 0-39.011555-33.845739 363.279034 363.279034 0 0 0-45.056203-28.894273c0.707352 1.286095 1.564749 2.465016 2.61506 3.515327 22.721016 22.678146 10.84607 75.901054-26.96513 145.092977-0.04287 0.08574-0.12861 0.192914-0.171479 0.278654-0.428698 0.793092-0.878832 1.586184-1.328965 2.400711-44.070197 79.6736-122.050438 179.989028-221.186946 279.125536a1814.213094 1814.213094 0 0 1-52.228327 50.196297c-17.583065 16.230522-45.943609 10.597425-55.923708-11.150446-21.269872-46.359446-33.138387-97.923291-33.138387-152.267245 0-98.686374 39.097295-188.262907 102.6304-254.046679 35.003225-36.246451 77.422933-65.290768 124.815542-84.667936a363.729167 363.729167 0 0 1 61.70685-18.984909 367.081589 367.081589 0 0 0-76.619124-8.065961c-48.957359 0-95.642616 9.624279-138.319542 27.05087-47.392609 19.377168-89.812317 48.421486-124.815543 84.667936-63.533105 65.783771-102.6304 155.360304-102.6304 254.046679 0 105.864929 45.000472 201.194595 116.89534 267.987951-0.606608 0.450133-1.22179 0.917415-1.828399 1.365404a365.722615 365.722615 0 0 0 47.264 38.046984c0.758796-0.628043 1.519736-1.268947 2.278532-1.899134a363.840629 363.840629 0 0 0 79.234184 39.448828c38.132724 13.482565 79.180597 20.813308 121.921828 20.813308 26.268495 0 51.889656-2.78654 76.595545-8.050956a362.537386 362.537386 0 0 1-45.285557-12.762352c-42.784101-15.111619-81.924266-37.982679-115.705701-66.898387-1.819825-1.556175-3.622502-3.129498-5.410174-4.722113-19.597948-17.445882-19.621526-48.0378-0.510151-66.017412a2617.332411 2617.332411 0 0 0 57.4413-55.724363c83.982019-83.960584 157.375187-168.54278 216.385523-247.230374 0.535873-0.728787 1.093181-1.457575 1.629054-2.186361 36.525105-48.850184 67.47713-95.428266 91.95581-138.148063a351.515549 351.515549 0 0 0-17.233677-18.474759z" opacity=".25" p-id="2359"></path><path d="M996.680937 27.312633c-47.949917-47.928482-191.049447 11.703467-362.250158 139.691377l-1.543314 1.543315c24.843073 8.809752 48.44292 20.256 70.456584 33.995784l1.843403-1.843404c69.191924-37.832635 122.414831-49.664711 145.071542-26.96513 22.721016 22.678146 10.84607 75.901054-26.96513 145.092978-0.04287 0.08574-0.12861 0.192914-0.171479 0.278654-0.428698 0.793092-0.878832 1.586184-1.328965 2.400711-44.070197 79.6736-122.050438 179.989028-221.186946 279.125535-100.122514 100.122514-201.466818 178.681498-281.526246 222.494476-0.08574 0.04287-0.192914 0.12861-0.278654 0.171479h-0.021435c-0.471568 0.257219-0.921702 0.514438-1.39327 0.750222-16.912152 9.195581-32.859733 16.847848-47.628394 22.763886-45.034768 18.112508-79.094857 20.448914-96.049879 3.472457-22.528102-22.506667-10.996114-75.065092 26.129168-143.506793a363.804189 363.804189 0 0 1-34.167263-70.585193c-127.087644 170.450488-186.14085 312.735491-138.362412 360.513929 37.125282 37.146717 131.331758 9.731454 251.495923-64.004673h0.021435c34.531657-21.177702 71.206806-46.192254 109.29666-74.614959 0.471568-0.364394 0.964571-0.707352 1.436139-1.071746 79.309206-59.28899 164.684495-133.260901 249.416736-218.014577 83.982019-83.960584 157.375187-168.54278 216.385523-247.230374 0.535873-0.728787 1.093181-1.457575 1.629054-2.186361 127.987911-171.222145 187.641295-314.321675 139.691378-362.271593z" fill="#F7DB9C" p-id="2360"></path><path d="M511.981652 889.058601c-43.358557 0-85.870435-7.29859-126.350283-21.694283l7.180698-20.195982c38.17345 13.572592 78.267469 20.453201 119.171728 20.453201 196.086653 0 355.61605-159.529396 355.61605-355.61605 0-40.889254-6.882753-80.976843-20.455345-119.148149l-0.619469-1.742659v-1.849834l10.749613-0.010717 10.065838-3.579632c14.395693 40.484134 21.694283 82.987438 21.694283 126.330991-0.002143 207.908012-169.147245 377.053114-377.053113 377.053114z" fill="#333333" p-id="2361"></path><path d="M75.26015 1024c-23.827058 0-42.389699-6.571947-55.53788-19.72227-26.78079-26.778646-26.285643-76.040381 1.472579-146.411225 25.291063-64.120421 72.737259-143.59682 137.20707-229.840223l17.169372 12.833087c-63.346621 84.738671-109.832533 162.498133-134.435535 224.871608-23.647004 59.955616-25.869806 103.777168-6.256853 123.39012 19.615096 19.612952 63.436647 17.392295 123.39012-6.256853 62.373475-24.603002 140.130793-71.088914 224.869465-134.435535 81.019713-60.566512 166.870857-135.605881 248.267824-217.002849 81.39268-81.39268 156.429907-167.241681 217.000705-248.26568 63.346621-84.738671 109.832533-162.498133 134.435535-224.871608 23.649148-59.955616 25.869806-103.777168 6.258997-123.390121-19.612952-19.612952-63.434504-17.394438-123.392264 6.256854-62.373475 24.600858-140.130793 71.088914-224.869465 134.435535l-12.83523-17.167228c86.243403-64.471954 165.721945-111.916007 229.842366-137.20707 70.370844-27.756079 119.632579-28.253369 146.413368-1.474723 26.778646 26.778646 26.2835 76.040381-1.474722 146.413368-25.291063 64.120421-72.737259 143.59682-137.20707 229.840223-61.175263 81.832096-136.909125 168.484906-219.015588 250.589226-82.11075 82.11075-168.761417 157.842468-250.587082 219.013445-86.243403 64.469811-165.721945 111.916007-229.842367 137.20707-35.817752 14.127756-66.173887 21.192706-90.873345 21.194849z m131.908357-151.56418c-17.533765 0.002143-31.314275-4.837862-41.043586-14.569315-25.826936-25.826936-17.122215-80.3981 25.171028-157.810316l18.809142 10.275901c-35.663421 65.275764-46.438755 114.762565-28.825681 132.375639 17.655944 17.649514 67.127741 6.876323 132.347774-28.821394l2.422146-1.316104c81.624178-45.086212 182.421891-124.957013 276.982043-219.515022 95.265361-95.265361 175.648457-196.89475 220.57605-278.87046l0.237928-0.437272c35.706291-65.337925 46.477338-114.822582 28.840686-132.439944-17.638796-17.655944-67.112736-6.88061-132.352061 28.797816l-10.286618-18.807c77.388637-42.318964 131.955515-51.017254 157.795311-25.147448 25.83551 25.809788 17.165084 80.333795-25.083144 157.677419l-0.229354 0.428698c-45.840721 83.7248-127.610656 187.22117-224.344309 283.95268-96.752944 96.752944-200.249315 178.514305-283.954823 224.320731l-0.190771 0.102887a14.71936 14.71936 0 0 1-0.49729 0.259363l-0.04287 0.021435c-48.07424 26.272782-87.325866 39.519563-116.331601 39.521706z" fill="#333333" p-id="2362"></path><path d="M75.386616 974.607513c-9.926512 0-17.510187-1.892703-20.806878-5.189395-0.713783-0.713783-17.147936-18.354722 12.475124-93.462684 16.071903-40.743497 42.036023-88.573379 76.376909-140.949607-27.198771 65.505117-26.236343 113.339286 2.988028 142.563657 10.40451 10.40451 29.406568 22.808899 60.834448 22.808899 22.800325 0 50.080548-6.593382 81.47199-19.657966-91.094125 59.683393-167.90402 93.887096-213.328904 93.887096h-0.010717z m805.194217-685.643092c27.181623-65.479395 26.202047-113.311421-3.048046-142.531504-10.374502-10.385219-29.372272-22.796038-60.81087-22.796038-22.774603 0-50.035535 6.582664-81.403397 19.621526 91.068404-59.659814 167.856863-93.844226 213.275316-93.844225 9.922225 0 17.503756 1.89056 20.800447 5.18725 0.715926 0.713783 17.152223 18.354722-12.470837 93.462685-16.065473 40.730636-42.023162 88.545513-76.342613 140.900306z" fill="#DDBE7F" p-id="2363"></path><path d="M319.693266 829.921799l-9.242737-4.462751c-48.625117-30.278969-90.290316-71.954885-120.49855-120.522128a372.673959 372.673959 0 0 1-34.640975-71.916302c-14.288518-40.124028-21.535665-82.28223-21.535665-125.299971 0-206.178214 167.738971-373.917185 373.917185-373.917185 43.03489 0 85.203809 7.245003 125.332124 21.537808a374.11653 374.11653 0 0 1 71.882006 34.634545c48.627261 30.244673 90.30532 71.929163 120.528559 120.552136l-12.635886 21.295594-5.566649-9.980099c-28.49987-45.845008-67.79651-85.148078-113.643662-113.662953a352.589439 352.589439 0 0 0-67.75364-32.645384c-37.81763-13.467561-77.564404-20.296726-118.142852-20.296727-194.361142 0-352.482264 158.123266-352.482264 352.482265 0 40.5613 6.829166 80.299499 20.294583 118.11713a351.376222 351.376222 0 0 0 32.649671 67.779362c28.375548 45.624228 67.47713 84.798689 113.112075 113.326425l7.615828 3.613927-9.189151 19.364308z" fill="#333333" p-id="2364"></path></svg>